<?xml version="1.0" encoding="UTF-8" standalone="no"?>
<!-- Created with Inkscape (http://www.inkscape.org/) -->

<svg
   xmlns:osb="http://www.openswatchbook.org/uri/2009/osb"
   xmlns:dc="http://purl.org/dc/elements/1.1/"
   xmlns:cc="http://creativecommons.org/ns#"
   xmlns:rdf="http://www.w3.org/1999/02/22-rdf-syntax-ns#"
   xmlns:svg="http://www.w3.org/2000/svg"
   xmlns="http://www.w3.org/2000/svg"
   xmlns:xlink="http://www.w3.org/1999/xlink"
   xmlns:sodipodi="http://sodipodi.sourceforge.net/DTD/sodipodi-0.dtd"
   xmlns:inkscape="http://www.inkscape.org/namespaces/inkscape"
   width="1920px"
   height="1080px"
   viewBox="0 0 1920 1080"
   version="1.1"
   id="SVGRoot"
   inkscape:version="0.92.5 (2060ec1f9f, 2020-04-08)"
   sodipodi:docname="penguin.svg"
   inkscape:export-filename="C:\Users\Kibrands\Desktop\penguin.png"
   inkscape:export-xdpi="96"
   inkscape:export-ydpi="96">
  <defs
     id="defs3801">
    <linearGradient
       inkscape:collect="always"
       id="linearGradient7525">
      <stop
         style="stop-color:#fff2c5;stop-opacity:1;"
         offset="0"
         id="stop7521" />
      <stop
         style="stop-color:#fff2c5;stop-opacity:0;"
         offset="1"
         id="stop7523" />
    </linearGradient>
    <linearGradient
       inkscape:collect="always"
       id="linearGradient7292">
      <stop
         style="stop-color:#ff4f00;stop-opacity:1;"
         offset="0"
         id="stop7288" />
      <stop
         style="stop-color:#ff4f00;stop-opacity:0;"
         offset="1"
         id="stop7290" />
    </linearGradient>
    <linearGradient
       id="linearGradient7250"
       osb:paint="solid">
      <stop
         style="stop-color:#ff7900;stop-opacity:1;"
         offset="0"
         id="stop7248" />
    </linearGradient>
    <linearGradient
       inkscape:collect="always"
       id="linearGradient4790"
       osb:paint="gradient">
      <stop
         style="stop-color:#000000;stop-opacity:0;"
         offset="0"
         id="stop4786" />
      <stop
         style="stop-color:#000000;stop-opacity:0;"
         offset="1"
         id="stop4788" />
    </linearGradient>
    <linearGradient
       inkscape:collect="always"
       xlink:href="#linearGradient7292"
       id="linearGradient7294"
       x1="1118.7862"
       y1="716.59055"
       x2="1139.0733"
       y2="716.59055"
       gradientUnits="userSpaceOnUse" />
    <linearGradient
       inkscape:collect="always"
       xlink:href="#linearGradient7525"
       id="linearGradient7527"
       x1="798.75241"
       y1="413.70047"
       x2="864.43804"
       y2="413.70047"
       gradientUnits="userSpaceOnUse" />
  </defs>
  <sodipodi:namedview
     id="base"
     pagecolor="#ffffff"
     bordercolor="#666666"
     borderopacity="1.0"
     inkscape:pageopacity="0.0"
     inkscape:pageshadow="2"
     inkscape:zoom="0.7"
     inkscape:cx="859.40978"
     inkscape:cy="617.4785"
     inkscape:document-units="px"
     inkscape:current-layer="layer7"
     showgrid="false"
     inkscape:window-width="1920"
     inkscape:window-height="1057"
     inkscape:window-x="1016"
     inkscape:window-y="-8"
     inkscape:window-maximized="1"
     inkscape:snap-grids="true" />
  <metadata
     id="metadata3804">
    <rdf:RDF>
      <cc:Work
         rdf:about="">
        <dc:format>image/svg+xml</dc:format>
        <dc:type
           rdf:resource="http://purl.org/dc/dcmitype/StillImage" />
        <dc:title></dc:title>
      </cc:Work>
    </rdf:RDF>
  </metadata>
  <g
     inkscape:groupmode="layer"
     id="layer7"
     inkscape:label="Capa 7"
     style="display:inline">
    <path
       style="display:inline;fill:#000c33;fill-opacity:1;stroke:none;stroke-width:1px;stroke-linecap:butt;stroke-linejoin:miter;stroke-opacity:1"
       d="m 839.94184,624.92628 c -39.37762,59.84657 -61.03078,134.34191 -67.82815,159.30823 -6.79737,24.96632 88.53628,-59.80822 88.53628,-59.80822 -17.56303,-23.83889 -17.68087,-62.94232 -20.70813,-99.50001 z"
       id="path5737"
       inkscape:connector-curvature="0"
       sodipodi:nodetypes="czcc" />
    <path
       style="fill:#000c33;fill-opacity:1;stroke:none;stroke-width:1px;stroke-linecap:butt;stroke-linejoin:miter;stroke-opacity:1"
       d="m 1056.1145,773.16616 c 0,0 26.4496,91.84617 20.645,88.45148 L 966.96853,797.40983 Z"
       id="path5755"
       inkscape:connector-curvature="0"
       sodipodi:nodetypes="cscc" />
  </g>
  <g
     inkscape:groupmode="layer"
     id="layer6"
     inkscape:label="Capa 6"
     style="display:inline">
    <path
       style="fill:#ffffff;fill-opacity:1;stroke:none;stroke-width:1px;stroke-linecap:butt;stroke-linejoin:miter;stroke-opacity:1"
       d="m 898.53069,562.29682 -32.82996,23.73859 -10.6066,27.77919 -15.15229,11.11168 c 2.15235,89.20755 28.84837,146.91706 112.69329,179.72049 l 40.34482,0.59174 c 56.55215,-17.51234 88.19485,-50.74384 129.29955,-83.84266 l 9.5964,-39.39595 -26.0293,-18.45323 c -9.6197,11.79357 -13.5235,27.73099 -27.4221,36.95722 -2.4829,-14.5945 -1.318,-24.61634 -0.112,-38.28863 l -8.3084,-24.40954 45.7094,-62.62946 -6.8185,-37.62818 -150.26023,-77.02413 -38.13326,16.41498 z"
       id="path5735"
       inkscape:connector-curvature="0"
       sodipodi:nodetypes="ccccccccccccccccc" />
  </g>
  <g
     inkscape:groupmode="layer"
     id="layer9"
     inkscape:label="Capa 9">
    <path
       style="fill:#0b0b0c;fill-opacity:1;stroke:none;stroke-width:1px;stroke-linecap:butt;stroke-linejoin:miter;stroke-opacity:1"
       d="m 1131.8759,681.9999 -26.0293,-18.45323 c -8.9891,12.73601 -16.0455,30.78691 -27.4221,36.95722 -2.3503,-8.13702 -1.7829,-22.10919 -0.112,-38.28863 l -8.3084,-24.40954 23.9911,-18.94036 50.0026,28.78935 c 19.5981,19.52486 30.926,34.65478 24.2436,44.69925 -9.8266,0.69038 -16.4417,2.12664 -36.3655,-10.35406 z"
       id="path7297"
       inkscape:connector-curvature="0"
       sodipodi:nodetypes="ccccccccc" />
    <path
       style="fill:#0b0b0c;fill-opacity:1;stroke:none;stroke-width:1px;stroke-linecap:butt;stroke-linejoin:miter;stroke-opacity:1"
       d="m 898.53069,562.29682 c -11.84006,8.21706 -22.68057,15.83139 -32.82996,23.73859 l -10.6066,27.77919 -15.15229,11.11168 c 8.24085,-26.54581 15.24146,-69.21482 24.74874,-79.29698 l -39.01714,-30.1783 8.43431,-74.07527 70.48385,73.44392 z"
       id="path7299"
       inkscape:connector-curvature="0"
       sodipodi:nodetypes="ccccccccc" />
  </g>
  <g
     inkscape:groupmode="layer"
     id="layer5"
     inkscape:label="Capa 5"
     style="display:inline">
    <ellipse
       style="opacity:0.878;fill:#000000;fill-opacity:1;stroke:#000000;stroke-opacity:1"
       id="path4926"
       cx="954.55414"
       cy="519.8349"
       rx="29.839502"
       ry="31.350185" />
    <ellipse
       style="opacity:0.878;fill:#ffffff;fill-opacity:0.09045225;stroke:none;stroke-opacity:1"
       id="path4968"
       cx="956.36194"
       cy="504.21304"
       rx="6.3134532"
       ry="5.0507627" />
    <ellipse
       style="opacity:0.878;fill:#000000;fill-opacity:1;stroke:none;stroke-opacity:1"
       id="path4978"
       ry="28.254202"
       rx="24.323526"
       cy="58.573818"
       cx="1217.7747"
       transform="rotate(25.6)" />
    <path
       style="opacity:0.878;fill:#ffffff;fill-opacity:0.10232556;stroke:none;stroke-width:1.08587825;stroke-opacity:1"
       id="path5726"
       sodipodi:type="arc"
       sodipodi:cx="-823.14117"
       sodipodi:cy="888.77765"
       sodipodi:rx="4.3891859"
       sodipodi:ry="5.7538195"
       sodipodi:start="0"
       sodipodi:end="6.2413482"
       d="m -818.75199,888.77765 a 4.3891859,5.7538195 0 0 1 -4.34328,5.7535 4.3891859,5.7538195 0 0 1 -4.43413,-5.63315 4.3891859,5.7538195 0 0 1 4.25053,-5.87134 4.3891859,5.7538195 0 0 1 4.52304,5.51034"
       sodipodi:open="true"
       transform="matrix(-0.25861896,-0.96597942,0.96587216,-0.25901926,0,0)" />
    <path
       style="fill:#ff7900;fill-opacity:1;stroke:none;stroke-width:1px;stroke-linecap:butt;stroke-linejoin:miter;stroke-opacity:1"
       d="m 983.3835,556.74098 c 24.521,-26.51842 57.4575,-7.52909 54.2957,25.75889 -8.7058,0.0674 -17.3354,0.89708 -26.264,-1.26269 -16.99248,-5.52622 -27.33658,-16.44923 -28.0317,-24.4962 z"
       id="path5728"
       inkscape:connector-curvature="0"
       sodipodi:nodetypes="cccc" />
    <path
       style="fill:#ff7900;fill-opacity:1;stroke:none;stroke-width:1px;stroke-linecap:butt;stroke-linejoin:miter;stroke-opacity:1"
       d="m 983.3835,556.74098 c -1.07072,19.83891 3.87983,29.59493 14.14214,37.12311 17.43956,7.23219 26.12116,-2.39715 33.58756,-8.33376 -15.3504,5.97116 -26.4192,10.03089 -35.10279,-4.54569 -0.72479,-5.22277 -4.07844,-10.15344 -6.81853,-15.15229 z"
       id="path5730"
       inkscape:connector-curvature="0"
       sodipodi:nodetypes="cccccc" />
    <path
       style="fill:#ec4a77;fill-opacity:1;stroke:none;stroke-width:1px;stroke-linecap:butt;stroke-linejoin:miter;stroke-opacity:1"
       d="m 1037.6792,582.49987 -6.566,3.03046 c -13.1395,5.31519 -26.4007,12.19295 -35.10279,-4.54569 l -6.81853,-15.15229 22.22332,15.40483 z"
       id="path5732"
       inkscape:connector-curvature="0"
       sodipodi:nodetypes="cccccc" />
  </g>
  <g
     inkscape:groupmode="layer"
     id="layer4"
     inkscape:label="Capa 4"
     style="display:inline">
    <path
       style="fill:none;stroke:none;stroke-width:1px;stroke-linecap:butt;stroke-linejoin:miter;stroke-opacity:1"
       d="m 1015.5188,453.60233 -18.21314,-3.49029 c -15.98247,-3.06282 -24.97526,-31.93459 -25.10152,-42.24003 -0.11817,-9.64398 5.92559,-18.86538 12.82124,-25.93836 l -29.31109,2.70921 -61.78572,87.85714 -55.71428,2.85714 c 1.20641,24.46387 -9.24727,53.41343 42.14285,58.57143 h 15.71429 l 3.21429,42.14286 21.42857,-18.92857 L 927.5,533.21428 931.78572,490 l 29.28571,-15 60.44537,64.06331 6.3134,5.05076 75.0269,1.60022 4.2858,27.14285 -21.734,32.87624 -8.0812,5.05076 -12.6269,29.7995 25.2538,-12.12183 4.0406,-9.59645 16.1624,20.20305 c 14.1623,15.40897 28.5262,20.19063 40.1357,1.51523 3.575,-18.95804 -5.6692,-22.97487 -17.0247,-37.14105 l -9.979,-13.87165 15.1523,-34.85026 16.1625,-51.51778 -3.0305,-17.1726 -14.6472,-22.22335 5.5558,26.26396 -9.0913,13.63706 -21.7183,5.55584 -13.3216,-15.25538 z"
       id="path4885"
       inkscape:connector-curvature="0"
       sodipodi:nodetypes="cssccccccccccccccccccccccccccccccccc" />
    <path
       style="fill:#c4c1c4;fill-opacity:1;stroke:none;stroke-width:1px;stroke-linecap:butt;stroke-linejoin:miter;stroke-opacity:1"
       d="m 955.71429,384.64286 c -6.41682,13.81433 -7.44555,28.30901 -5.79209,40.77829 4.00043,25.51593 13.48779,34.99647 28.03173,42.55268 40.84837,21.22253 80.96987,31.18223 125.13267,59.47273 11.5658,7.40902 40.4061,-8.08122 40.4061,-8.08122 23.5667,-15.64186 3.3757,-40.49344 -6.566,-55.55839 9.14,27.39796 3.8033,41.9099 -25.4748,44.82551 0,0 -8.6601,-9.5389 -13.1006,-14.62403 l -82.8325,-40.4061 -23.549,-4.94767 c -9.58521,-11.42594 -20.51564,-22.4862 -20.20305,-48.9924 l 13.25863,-17.72861 z"
       id="path4887"
       inkscape:connector-curvature="0"
       sodipodi:nodetypes="ccssccccccccc" />
    <path
       style="fill:#71726e;stroke:none;stroke-width:1px;stroke-linecap:butt;stroke-linejoin:miter;stroke-opacity:1;fill-opacity:1"
       d="m 975.71429,425.71428 c 24.78941,3.80338 48.57511,9.27962 69.10711,20.17858 l 46.6072,32.32142 18.5714,20.35715 12.6786,0.17857 c 8.6381,-10.0274 11.1164,-22.62133 14.2481,-34.94305 6.8236,20.98347 10.6306,42.20265 -25.4748,44.82551 -4.0904,-4.59821 -8.5369,-9.55249 -13.1006,-14.62403 l -82.8325,-40.4061 -23.549,-4.94767 c -9.26983,-6.68396 -12.50924,-14.87553 -16.25551,-22.94038 z"
       id="path4897"
       inkscape:connector-curvature="0"
       sodipodi:nodetypes="ccccccccccc" />
    <path
       style="fill:#8e9090;fill-opacity:1;stroke:none;stroke-width:1px;stroke-linecap:butt;stroke-linejoin:miter;stroke-opacity:1"
       d="m 899.28572,576.07143 9.64285,-42.85715 -2.85714,-49.28571 13.57143,-48.57143 36.07143,-50.71428 c -6.49702,19.24442 -9.61298,39.71112 6.42857,69.28571 19.18984,14.55317 35.92962,20.79984 58.21424,31.42857 l 81.0714,38.57143 c 24.2318,12.7572 51.7297,-10.00898 53.1759,-20.72567 -10.295,36.40814 -20.6901,67.49179 -31.3148,86.36804 l -29.2944,29.29442 -4.0406,9.59645 -25.2538,12.12183 12.6269,-29.7995 8.0812,-5.05076 21.734,-32.87624 12.4536,-26.36486 -16.7394,-0.77799 -75.0269,-1.60022 -6.3134,-5.05076 L 961.07143,475 947.14286,457.14286 931.78572,490 927.5,533.21428 l -6.78571,23.92858 z"
       id="path4907"
       inkscape:connector-curvature="0"
       sodipodi:nodetypes="cccccccccccccccccccccccccc" />
    <path
       style="fill:#575856;stroke:none;stroke-width:1px;stroke-linecap:butt;stroke-linejoin:miter;stroke-opacity:1;fill-opacity:1"
       d="M 931.78572,490 947.14286,457.14286 961.07143,475 Z"
       id="path4909"
       inkscape:connector-curvature="0" />
    <path
       style="fill:#575856;stroke:none;stroke-width:1px;stroke-linecap:butt;stroke-linejoin:miter;stroke-opacity:1;fill-opacity:1"
       d="m 1107.1429,572.85714 12.4536,-26.36486 -16.7394,-0.77799 z"
       id="path4911"
       inkscape:connector-curvature="0" />
    <path
       style="fill:#575856;fill-opacity:1;stroke:none;stroke-width:1px;stroke-linecap:butt;stroke-linejoin:miter;stroke-opacity:1"
       d="m 899.28572,576.07143 9.64285,-42.85715 -2.85714,-49.28571 13.57143,-48.57143 -25.71429,37.14286 1.25001,31.07142 0.89285,30.35715 z"
       id="path4913"
       inkscape:connector-curvature="0"
       sodipodi:nodetypes="cccccccc" />
    <path
       style="fill:#575856;fill-opacity:1;stroke:none;stroke-width:1px;stroke-linecap:butt;stroke-linejoin:miter;stroke-opacity:1"
       d="m 1093.9952,618.86536 29.2944,-29.29442 c -2.168,5.97635 -0.6047,12.57458 -6.5039,17.92906 -2.4616,4.71033 -8.2594,7.99084 -12.8571,11.78571 -3.4567,1.60643 -6.6272,-0.22049 -9.9334,-0.42035 z"
       id="path4915"
       inkscape:connector-curvature="0"
       sodipodi:nodetypes="ccccc" />
    <path
       style="fill:#8e9090;fill-opacity:1;stroke:none;stroke-width:1px;stroke-linecap:butt;stroke-linejoin:miter;stroke-opacity:1"
       d="m 893.92857,472.5 -32.5,1.78571 c 7.39262,36.51764 16.4347,54.0665 26.51786,59.64286 h 8.125 c -0.0849,-18.58809 -0.63345,-38.567 -2.14286,-61.42857 z"
       id="path4917"
       inkscape:connector-curvature="0"
       sodipodi:nodetypes="ccccc" />
    <path
       style="fill:#8c6c33;fill-opacity:1;stroke:none;stroke-width:1px;stroke-linecap:butt;stroke-linejoin:miter;stroke-opacity:1"
       d="m 861.42857,474.28571 -23.21428,1.07143 c -4.90233,63.41712 24.98171,55.74907 49.73214,58.57143 -16.672,-11.52934 -19.44822,-36.58218 -26.51786,-59.64286 z"
       id="path4919"
       inkscape:connector-curvature="0"
       sodipodi:nodetypes="cccc" />
    <path
       style="fill:#8e9090;fill-opacity:1;stroke:none;stroke-width:1px;stroke-linecap:butt;stroke-linejoin:miter;stroke-opacity:1"
       d="m 1093.9952,618.86536 9.9334,0.42035 12.8571,-11.78571 6.5039,-17.92906 19.9247,24.35763 c -3.9032,13.55521 -10.9445,25.59374 -40,17.5 z"
       id="path4921"
       inkscape:connector-curvature="0"
       sodipodi:nodetypes="ccccccc" />
    <path
       style="fill:#8c6c33;stroke:none;stroke-width:1px;stroke-linecap:butt;stroke-linejoin:miter;stroke-opacity:1;fill-opacity:1"
       d="m 1143.2143,613.92857 c 7.0882,7.40734 10.7332,15.89072 7.079,26.65507 -9.205,14.16639 -20.5981,22.52611 -47.079,-9.15507 20.8855,5.15157 33.9289,-1.10335 40,-17.5 z"
       id="path4923"
       inkscape:connector-curvature="0"
       sodipodi:nodetypes="cccc" />
  </g>
  <g
     inkscape:groupmode="layer"
     id="layer3"
     inkscape:label="Capa 3"
     style="display:inline">
    <path
       style="fill:none;stroke:none;stroke-width:1px;stroke-linecap:butt;stroke-linejoin:miter;stroke-opacity:1"
       d="m 1022.6675,545.8204 c -3.5714,-12.85714 -10,-54.28571 -10,-54.28571 l 14.9731,-12.42601 -12.1218,-25.50635 25.2538,-3.53554 13.6371,-17.17259 -4.5457,-21.2132 53.033,-32.82996 6.0609,55.05331 c -21.594,7.27719 -20.9237,23.83117 -20.2031,40.40611 l 9.5965,19.69797 -22.1123,10.56197 -4.6429,21.25 z"
       id="path4842"
       inkscape:connector-curvature="0"
       sodipodi:nodetypes="cccccccccccccc" />
    <path
       style="fill:#87858a;stroke:none;stroke-width:1px;stroke-linecap:butt;stroke-linejoin:miter;stroke-opacity:1;fill-opacity:1"
       d="m 1022.6675,545.8204 11.6182,-17.96326 45.7143,-85.71428 22.897,-63.29182 -53.033,32.82996 4.5457,21.2132 -13.6371,17.17259 -25.2538,3.53554 12.1218,25.50635 -14.9731,12.42601 z"
       id="path4864"
       inkscape:connector-curvature="0" />
    <path
       style="fill:#a4a5a7;fill-opacity:1;stroke:none;stroke-width:1px;stroke-linecap:butt;stroke-linejoin:miter;stroke-opacity:1"
       d="m 1022.6675,545.8204 11.6182,-17.96326 45.7143,-85.71428 22.897,-63.29182 6.0609,55.05331 c -11.2453,3.80251 -25.074,23.97571 -16.9201,45.45687 2.3132,6.09414 6.3135,14.64721 6.3135,14.64721 l -22.1123,10.56197 -4.6429,21.25 z"
       id="path4866"
       inkscape:connector-curvature="0"
       sodipodi:nodetypes="cccccscccc" />
  </g>
  <g
     inkscape:groupmode="layer"
     id="layer2"
     inkscape:label="Capa 2"
     style="display:inline">
    <path
       style="fill:#ffc000;fill-opacity:1;stroke:none;stroke-width:1px;stroke-linecap:butt;stroke-linejoin:miter;stroke-opacity:1"
       d="m 1034.2857,527.85714 c 0,-14.28571 -2.8571,-43.57143 -2.8571,-43.57143 l 52.015,-51.52483 -12.7293,70.81055 z"
       id="path4806"
       inkscape:connector-curvature="0"
       sodipodi:nodetypes="ccccc" />
  </g>
  <g
     inkscape:groupmode="layer"
     id="layer8"
     inkscape:label="Capa 8"
     style="display:inline">
    <path
       style="fill:#ff7900;fill-opacity:1;stroke:none;stroke-width:1px;stroke-linecap:butt;stroke-linejoin:miter;stroke-opacity:1"
       d="m 952.63513,804.64677 40.34482,0.59174 28.80575,52.26149 -16.0714,-5.35714 0.3571,16.78571 -17.49997,-10 -1.42857,17.85714 c -20.84492,-22.09713 -26.79181,-47.59054 -34.50773,-72.13894 z"
       id="path5758"
       inkscape:connector-curvature="0"
       sodipodi:nodetypes="cccccccc" />
    <path
       style="fill:#bf2c00;fill-opacity:0.98139535;stroke:none;stroke-width:1px;stroke-linecap:butt;stroke-linejoin:miter;stroke-opacity:1"
       d="m 1021.7857,857.5 -24.00752,-9.70882 0.37881,16.28871 c -5.64076,-2.68278 -12.68298,-7.36763 -19.06663,-11.11167 l -0.50508,13.76332 8.55758,10.05417 1.42857,-17.85714 17.49997,10 -0.3571,-16.78571 z"
       id="path5762"
       inkscape:connector-curvature="0"
       sodipodi:nodetypes="cccccccccc" />
    <path
       style="fill:#bf2c00;fill-opacity:0.98139535;stroke:none;stroke-width:1px;stroke-linecap:butt;stroke-linejoin:miter;stroke-opacity:1"
       d="m 1118.9286,723.83928 c -0.5396,-9.25881 1.1867,-16.8559 7.7678,-20.89285 l 8.3036,3.48214 0.5357,-22.14286 10.5357,4.82143 5.7143,-20.89286 9.4643,12.5 1.4286,-8.92857 c 6.3981,13.02498 15.9694,34.12397 11.7857,50 -6.4847,24.60728 -24.9928,19.55475 -42.5,1.96429 z"
       id="path5774"
       inkscape:connector-curvature="0"
       sodipodi:nodetypes="ccccccccscc" />
    <path
       style="fill:#ff7900;stroke:none;stroke-width:1px;stroke-linecap:butt;stroke-linejoin:miter;stroke-opacity:1;fill-opacity:1"
       d="m 1135.5357,684.28571 11.1137,9.70975 -0.578,-4.88832 5.7143,-20.89286 10.016,19.84653 -0.5517,-7.34653 -9.4643,-12.5 -5.7143,20.89286 z"
       id="path5778"
       inkscape:connector-curvature="0" />
    <path
       style="fill:url(#linearGradient7294);fill-opacity:1;stroke:none;stroke-width:1px;stroke-linecap:butt;stroke-linejoin:miter;stroke-opacity:1"
       d="m 1126.6964,702.94643 c -7.8866,4.69037 -8.2573,14.21585 -7.7678,20.89285 l 13.0357,-0.0893 c 2.5426,2.42095 4.7897,4.39873 7.109,6.48468 -2.4516,-1.98025 -4.6057,-5.57985 -4.0733,-23.80609 z"
       id="path7270"
       inkscape:connector-curvature="0"
       sodipodi:nodetypes="cccccc" />
  </g>
  <g
     inkscape:groupmode="layer"
     id="layer11"
     inkscape:label="Capa 11">
    <path
       style="display:inline;fill:#9ea0a0;stroke:none;stroke-width:1px;stroke-linecap:butt;stroke-linejoin:miter;stroke-opacity:1;fill-opacity:1"
       d="m 843.39286,359.82143 c 25.03551,-21.69419 60.48361,-112.11146 91.50332,-173.30136 12.96852,-12.78548 27.80675,-26.88229 45.96194,-29.29442 l 1.01015,63.63961 C 944.44079,275.00351 924.15608,330.85604 899.28572,386.25 l 2.67857,9.46428 -20.37937,8.03326 -39.44206,-23.21183 z"
       id="path7531"
       inkscape:connector-curvature="0"
       sodipodi:nodetypes="ccccccccc" />
    <path
       style="fill:#c0bfbf;fill-opacity:1;stroke:none;stroke-width:1px;stroke-linecap:butt;stroke-linejoin:miter;stroke-opacity:1"
       d="m 872.99863,372.18028 98.38985,-201.22171 c -7.3605,0.99118 -69.44915,135.16797 -104.87062,206.45214 z"
       id="path7549"
       inkscape:connector-curvature="0"
       sodipodi:nodetypes="cccc" />
    <path
       style="fill:#808581;fill-opacity:1;stroke:none;stroke-width:1px;stroke-linecap:butt;stroke-linejoin:miter;stroke-opacity:1"
       d="m 878.09365,390.50042 c -3.32822,-3.12663 0.45961,8.18798 3.49127,13.24712 l 20.37937,-8.03326 c -20.37937,8.03326 -13.59287,4.44136 -23.87064,-5.21386 z"
       id="path7551"
       inkscape:connector-curvature="0"
       sodipodi:nodetypes="sccs" />
    <path
       style="fill:#808581;stroke:none;stroke-width:1px;stroke-linecap:butt;stroke-linejoin:miter;stroke-opacity:1;fill-opacity:1"
       d="m 842.14286,380.53571 1.25,-20.71428 6.25,17.5 z"
       id="path7585"
       inkscape:connector-curvature="0" />
  </g>
  <g
     inkscape:groupmode="layer"
     id="layer10"
     inkscape:label="Capa 10"
     style="display:inline">
    <path
       style="fill:none;stroke:none;stroke-width:1px;stroke-linecap:butt;stroke-linejoin:miter;stroke-opacity:1"
       d="M 800.71429,527.14286 841.45707,511.28412 831.78572,495 l -27.5,-6.78572 -11.42858,-13.92857 z"
       id="path7302"
       inkscape:connector-curvature="0" />
    <path
       style="fill:#8c6c33;fill-opacity:1;fill-rule:nonzero;stroke:none;stroke-width:1px;stroke-linecap:butt;stroke-linejoin:miter;stroke-opacity:1"
       d="m 805.47039,500.04617 c -3.83964,6.63707 -3.30495,17.92186 -4.7561,27.09669 l 40.74278,-15.85874 c -11.87833,-4.254 -23.63064,-9.05403 -35.98668,-11.23795 z"
       id="path7314"
       inkscape:connector-curvature="0"
       sodipodi:nodetypes="cccc" />
    <path
       style="fill:#684d1a;fill-opacity:1;stroke:none;stroke-width:1px;stroke-linecap:butt;stroke-linejoin:miter;stroke-opacity:1"
       d="m 800.71429,527.14286 4.7561,-27.09669 -12.61325,-25.76046 z"
       id="path7446"
       inkscape:connector-curvature="0" />
    <path
       style="fill:#000d59;fill-opacity:1;stroke:none;stroke-width:1px;stroke-linecap:butt;stroke-linejoin:miter;stroke-opacity:1"
       d="m 831.78572,495 c 4.05121,-15.87439 -3.06517,-24.48314 26.78571,-57.14286 l -35,-15.71428 -19.28571,66.07142 c 10.75963,4.30437 21.55175,5.92567 27.5,6.78572 z"
       id="path7448"
       inkscape:connector-curvature="0"
       sodipodi:nodetypes="ccccc" />
    <path
       style="display:inline;fill:#d0b172;fill-opacity:1;stroke:none;stroke-width:1px;stroke-linecap:butt;stroke-linejoin:miter;stroke-opacity:1"
       d="m 799.76257,410.061 34.34518,31.31473 71.97337,-5.55584 17.1726,-38.13326 -41.6688,6.06091 -8.58629,-31.56726 c -12.33458,3.10193 -23.70543,-0.22103 -37.88072,15.15229 l -36.3655,6.06091 z"
       id="path7450"
       inkscape:connector-curvature="0"
       sodipodi:nodetypes="ccccccccc" />
    <path
       style="fill:none;fill-opacity:0.87441861;stroke:none;stroke-width:1px;stroke-linecap:butt;stroke-linejoin:miter;stroke-opacity:1"
       d="m 834.10775,441.37573 30.33029,-5.85305 17.14688,-31.77514 -8.58629,-31.56726 c -19.95997,1.01758 -31.36619,6.73972 -37.88072,15.15229 l -36.3655,6.06091 1.01016,16.66752 z"
       id="path7467"
       inkscape:connector-curvature="0"
       sodipodi:nodetypes="cccccccc" />
    <path
       style="fill:#8e5a1a;fill-opacity:1;stroke:none;stroke-width:1px;stroke-linecap:butt;stroke-linejoin:miter;stroke-opacity:1"
       d="m 853.32636,437.41671 11.11168,-51.39151 7.07107,25.00128 1.48952,-38.8462 8.58629,31.56726 -17.14688,31.77514 z"
       id="path7469"
       inkscape:connector-curvature="0"
       sodipodi:nodetypes="ccccccc" />
    <path
       style="fill:#feda9e;fill-opacity:1;stroke:none;stroke-width:1px;stroke-linecap:butt;stroke-linejoin:miter;stroke-opacity:1"
       d="m 864.43804,386.0252 7.07107,25.00128 1.48952,-38.8462 c -13.97244,1.02555 -27.71198,2.74785 -37.88072,15.15229 l -1.01016,54.04316 19.21861,-3.95902 z"
       id="path7471"
       inkscape:connector-curvature="0"
       sodipodi:nodetypes="ccccccc" />
    <path
       style="fill:#f7f6aa;fill-opacity:1;stroke:none;stroke-width:1px;stroke-linecap:butt;stroke-linejoin:miter;stroke-opacity:1"
       d="m 864.43804,386.0252 -29.32013,1.30737 -1.01016,54.04316 19.21861,-3.95902 z"
       id="path7473"
       inkscape:connector-curvature="0" />
    <path
       style="fill:#b4742f;fill-opacity:1;stroke:none;stroke-width:1px;stroke-linecap:butt;stroke-linejoin:miter;stroke-opacity:1"
       d="m 881.58492,403.74754 20.37937,-8.03326 21.28943,1.97235 z"
       id="path7483"
       inkscape:connector-curvature="0" />
    <path
       style="fill:#d0b172;fill-opacity:1;stroke:none;stroke-width:1px;stroke-linecap:butt;stroke-linejoin:miter;stroke-opacity:1"
       d="m 815.89286,391.25 c -5.01707,-2.55941 -3.72533,-16.15924 -5.35714,-24.64286 l 17.67857,-26.78571 15.17857,20 c -6.27363,7.59381 -2.5842,14.0155 -1.25,20.71428 l -7.02495,6.79686 z"
       id="path7485"
       inkscape:connector-curvature="0"
       sodipodi:nodetypes="ccccccc" />
    <path
       style="fill:url(#linearGradient7527);stroke:none;stroke-width:1px;stroke-linecap:butt;stroke-linejoin:miter;stroke-opacity:1;fill-opacity:1"
       d="m 834.10775,441.37573 -34.34518,-31.31473 -1.01016,-16.66752 36.3655,-6.06091 29.32013,-1.30737 -11.11168,51.39151 z"
       id="path7487"
       inkscape:connector-curvature="0" />
    <path
       style="fill:#b4742f;stroke:none;stroke-width:1px;stroke-linecap:butt;stroke-linejoin:miter;stroke-opacity:1;fill-opacity:1"
       d="m 828.21429,339.82143 13.92857,40.71428 1.25,-20.71428 z"
       id="path7529"
       inkscape:connector-curvature="0" />
  </g>
  <g
     inkscape:groupmode="layer"
     id="layer12"
     inkscape:label="Capa 12">
    <path
       style="fill:#0b0b0c;fill-opacity:1;stroke:none;stroke-width:1px;stroke-linecap:butt;stroke-linejoin:miter;stroke-opacity:1"
       d="m 823.52687,436.40655 c 0,0 -1.49064,-6.62806 -3.15673,-4.79821 -14.41224,15.8288 -18.40911,41.65634 -17.93021,52.78046 0.1788,4.15317 1.84579,3.82548 1.84579,3.82548 8.42685,-4.18264 13.71885,-16.51678 20.12503,-22.89211 0.21869,-13.57549 2.26244,-17.69564 -0.88388,-28.91562 z"
       id="path7594"
       inkscape:connector-curvature="0"
       sodipodi:nodetypes="cssccc" />
    <path
       style="display:inline;fill:#a6864d;fill-opacity:1;stroke:none;stroke-width:1px;stroke-linecap:butt;stroke-linejoin:miter;stroke-opacity:1"
       d="m 792.85714,474.28571 12.61325,25.76046 35.98668,11.23795 L 831.78572,495 l -27.5,-6.78572 z"
       id="path7304"
       inkscape:connector-curvature="0" />
  </g>
</svg>
